<?xml version="1.0" encoding="utf-8"?>
<!-- Generator: Adobe Illustrator 23.0.4, SVG Export Plug-In . SVG Version: 6.00 Build 0)  -->
<svg version="1.1" id="Layer_1" xmlns="http://www.w3.org/2000/svg" xmlns:xlink="http://www.w3.org/1999/xlink" x="0px" y="0px"
	 viewBox="0 0 600 600" style="enable-background:new 0 0 600 600;" xml:space="preserve">
<style type="text/css">
	.st0{fill:#EBFDFF;}
</style>
<g transform="translate(300,300)">
	<path class="st0" d="M177.4-215.6c24.2,11.2,38.2,42.9,63.9,80.5s63.4,81.2,58.2,115.2c-5.3,33.9-53.3,58.1-96.3,65.4
		c-43,7.3-80.8-2.5-110.8-13.6C62.6,20.9,40.9,8.4-8,3.1c-48.8-5.3-124.5-3.7-145.1-28.9s14.1-77.5,52.3-107.7
		c38.4-30.3,80.3-38.8,111.8-47.6c31.4-8.8,52.4-18.2,80.2-27.3C118.9-217.7,153.2-226.9,177.4-215.6z"/>
</g>
</svg>
