<?xml version="1.0" encoding="utf-8"?>
<!-- Generator: Adobe Illustrator 23.0.4, SVG Export Plug-In . SVG Version: 6.00 Build 0)  -->
<svg version="1.1" id="Layer_1" xmlns="http://www.w3.org/2000/svg" xmlns:xlink="http://www.w3.org/1999/xlink" x="0px" y="0px"
	 viewBox="0 0 522.8 392.9" style="enable-background:new 0 0 522.8 392.9;" xml:space="preserve">
<style type="text/css">
	.st0{fill:#BFBFBF;}
	.st1{fill:#EAEAEA;}
	.st2{fill:#999999;}
	.st3{fill:#C9C9C9;}
	.st4{fill:#D8D8D8;}
	.st5{fill:#F0EFEF;}
	.st6{fill:#E0E0E0;}
	.st7{fill:#D2D2D1;}
	.st8{fill:#FFFFFF;}
</style>
<title>meflat</title>
<path class="st0" d="M238.6,18.4h135.1c4.1,0,7.4,3.3,7.4,7.4v97.1c0,4.1-3.3,7.3-7.4,7.3H238.6c-4.1,0-7.4-3.3-7.4-7.3V25.7
	C231.2,21.7,234.5,18.4,238.6,18.4z"/>
<path class="st1" d="M231.2,27.1H381l0,0V123c0,4-3.2,7.2-7.2,7.2l0,0H238.5c-4,0-7.2-3.2-7.2-7.2V27.1H231.2z"/>
<circle class="st2" cx="238" cy="23.1" r="1.5"/>
<circle class="st2" cx="243.1" cy="23.1" r="1.5"/>
<circle class="st2" cx="248.3" cy="23.1" r="1.5"/>
<path class="st3" d="M247.4,36.1h87.9c1.5,0,2.8,1.2,2.8,2.8v0.4c0,1.5-1.2,2.8-2.8,2.8h-87.9c-1.5,0-2.8-1.2-2.8-2.8v-0.4
	C244.7,37.4,245.9,36.1,247.4,36.1z"/>
<rect x="244.7" y="50.6" class="st3" width="56.2" height="65.4"/>
<rect x="313.1" y="50.6" class="st3" width="53.6" height="31.7"/>
<rect x="313.1" y="88.6" class="st3" width="52.4" height="27.3"/>
<path class="st4" d="M468.7,0h41c7.2,0,13,5.8,13,13v106.8c0,7.2-5.8,13-13,13h-41c-7.2,0-13-5.8-13-13V13
	C455.7,5.8,461.5,0,468.7,0z"/>
<path class="st5" d="M471.1,2.6h36.2c6.9,0,12.4,5.6,12.4,12.4v102.7c0,6.9-5.6,12.4-12.4,12.4h-36.2c-6.9,0-12.4-5.6-12.4-12.4V15
	C458.7,8.2,464.3,2.6,471.1,2.6z"/>
<path class="st4" d="M474,1h30.6l0,0v1.8c0,2.4-1.9,4.3-4.3,4.3h-21.9c-2.4,0-4.3-1.9-4.3-4.3L474,1L474,1z"/>
<rect x="466.9" y="34.4" class="st6" width="44.6" height="5.1"/>
<rect x="466.9" y="46.7" class="st6" width="44.6" height="5.1"/>
<rect x="466.9" y="59" class="st6" width="44.6" height="5.1"/>
<rect x="466.2" y="71.4" class="st6" width="20.3" height="5.1"/>
<path class="st1" d="M300.2,168.9h127.6c1.9,0,3.5,1.6,3.5,3.5V252c0,1.9-1.6,3.5-3.5,3.5H300.2c-1.9,0-3.5-1.6-3.5-3.5v-79.6
	C296.6,170.5,298.2,168.9,300.2,168.9z"/>
<circle class="st2" cx="303" cy="174.8" r="1.5"/>
<circle class="st2" cx="308.1" cy="174.8" r="1.5"/>
<circle class="st2" cx="313.2" cy="174.8" r="1.5"/>
<rect x="301.5" y="182.8" class="st7" width="17.5" height="2.8"/>
<rect x="325.5" y="182.8" class="st7" width="100.1" height="2.8"/>
<rect x="301.5" y="189.6" class="st7" width="17.5" height="2.8"/>
<rect x="325.5" y="189.6" class="st7" width="100.1" height="2.8"/>
<rect x="301.5" y="196.5" class="st7" width="17.5" height="2.8"/>
<rect x="325.5" y="196.5" class="st7" width="100.1" height="2.8"/>
<rect x="301.5" y="203.4" class="st7" width="17.5" height="2.8"/>
<rect x="325.5" y="203.4" class="st7" width="100.1" height="2.8"/>
<rect x="301.5" y="210.3" class="st7" width="17.5" height="2.8"/>
<rect x="325.5" y="210.3" class="st7" width="100.1" height="2.8"/>
<rect x="301.5" y="217.2" class="st7" width="17.5" height="2.8"/>
<rect x="325.5" y="217.2" class="st7" width="27.4" height="2.8"/>
<rect x="355.7" y="217.2" class="st8" width="2.2" height="2.8"/>
</svg>
