<svg enable-background="new 0 0 522.8 392.9" viewBox="0 0 522.8 392.9" xmlns="http://www.w3.org/2000/svg"><path d="m238.6 18.4h135.1c4.1 0 7.4 3.3 7.4 7.4v97.1c0 4.1-3.3 7.3-7.4 7.3h-135.1c-4.1 0-7.4-3.3-7.4-7.3v-97.2c0-4 3.3-7.3 7.4-7.3z" fill="#bfbfbf"/><path d="m231.2 27.1h149.8v95.9c0 4-3.2 7.2-7.2 7.2h-135.3c-4 0-7.2-3.2-7.2-7.2v-95.9z" fill="#eaeaea"/><circle cx="238" cy="23.1" fill="#999" r="1.5"/><circle cx="243.1" cy="23.1" fill="#999" r="1.5"/><circle cx="248.3" cy="23.1" fill="#999" r="1.5"/><g fill="#c9c9c9"><path d="m247.4 36.1h87.9c1.5 0 2.8 1.2 2.8 2.8v.4c0 1.5-1.2 2.8-2.8 2.8h-87.9c-1.5 0-2.8-1.2-2.8-2.8v-.4c.1-1.5 1.3-2.8 2.8-2.8z"/><path d="m244.7 50.6h56.2v65.4h-56.2z"/><path d="m313.1 50.6h53.6v31.7h-53.6z"/><path d="m313.1 88.6h52.4v27.3h-52.4z"/></g><path d="m468.7 0h41c7.2 0 13 5.8 13 13v106.8c0 7.2-5.8 13-13 13h-41c-7.2 0-13-5.8-13-13v-106.8c0-7.2 5.8-13 13-13z" fill="#d8d8d8"/><path d="m471.1 2.6h36.2c6.9 0 12.4 5.6 12.4 12.4v102.7c0 6.9-5.6 12.4-12.4 12.4h-36.2c-6.9 0-12.4-5.6-12.4-12.4v-102.7c0-6.8 5.6-12.4 12.4-12.4z" fill="#f0efef"/><path d="m474 1h30.6v1.8c0 2.4-1.9 4.3-4.3 4.3h-21.9c-2.4 0-4.3-1.9-4.3-4.3z" fill="#d8d8d8"/><g fill="#e0e0e0"><path d="m466.9 34.4h44.6v5.1h-44.6z"/><path d="m466.9 46.7h44.6v5.1h-44.6z"/><path d="m466.9 59h44.6v5.1h-44.6z"/><path d="m466.2 71.4h20.3v5.1h-20.3z"/></g><path d="m300.2 168.9h127.6c1.9 0 3.5 1.6 3.5 3.5v79.6c0 1.9-1.6 3.5-3.5 3.5h-127.6c-1.9 0-3.5-1.6-3.5-3.5v-79.6c-.1-1.9 1.5-3.5 3.5-3.5z" fill="#eaeaea"/><circle cx="303" cy="174.8" fill="#999" r="1.5"/><circle cx="308.1" cy="174.8" fill="#999" r="1.5"/><circle cx="313.2" cy="174.8" fill="#999" r="1.5"/><g fill="#d2d2d1"><path d="m301.5 182.8h17.5v2.8h-17.5z"/><path d="m325.5 182.8h100.1v2.8h-100.1z"/><path d="m301.5 189.6h17.5v2.8h-17.5z"/><path d="m325.5 189.6h100.1v2.8h-100.1z"/><path d="m301.5 196.5h17.5v2.8h-17.5z"/><path d="m325.5 196.5h100.1v2.8h-100.1z"/><path d="m301.5 203.4h17.5v2.8h-17.5z"/><path d="m325.5 203.4h100.1v2.8h-100.1z"/><path d="m301.5 210.3h17.5v2.8h-17.5z"/><path d="m325.5 210.3h100.1v2.8h-100.1z"/><path d="m301.5 217.2h17.5v2.8h-17.5z"/><path d="m325.5 217.2h27.4v2.8h-27.4z"/></g><path d="m355.7 217.2h2.2v2.8h-2.2z" fill="#fff"/></svg>