<svg enable-background="new 0 0 522.8 392.9" viewBox="0 0 522.8 392.9" xmlns="http://www.w3.org/2000/svg" xmlns:xlink="http://www.w3.org/1999/xlink"><radialGradient id="a" cx="145.07" cy="2561.01" gradientTransform="matrix(1 0 0 .2 9.63 -145.402)" gradientUnits="userSpaceOnUse" r="110.8912"><stop offset="0" stop-color="#231f20" stop-opacity=".15"/><stop offset=".97" stop-color="#231f20" stop-opacity="0"/></radialGradient><path d="m191 358.3c-.6.5-2.3 2-2.1 3.9.2 1.1.8 2.1 1.7 2.8 1.1.7 2.3 1 3.6.9l9.9 2.4c7.5 1.8 6.9 1.8 10.9 2.7 2.8.6 5 .8 9.4 1.3 2 .2 5.3.6 8-1 .7-.3 1.2-.9 1.5-1.7.2-1.2-.4-2.3-1.5-2.8-1.8-.8-3.5.7-6.1.9-2.9.2-4.8-1.8-6.8-4-8-8.8-23.8-9.6-28.5-5.4z" fill="#dedfd9"/><g fill="#303030"><path d="m109.1 299.8c.7.3 1.1 1.1.8 1.8l-27.5 69.3c-.3.7-1.1 1.1-1.8.8s-1.1-1.1-.8-1.8l27.5-69.3c.3-.8 1.1-1.1 1.8-.8z"/><path d="m134.4 300.1c.8-.1 1.5.5 1.6 1.2l9.2 74c.1.8-.4 1.5-1.2 1.6s-1.5-.5-1.6-1.2l-9.2-74c-.1-.8.5-1.5 1.2-1.6z"/><path d="m152.2 297.1c.7-.3 1.5 0 1.8.8l28.9 68.7c.3.7 0 1.5-.7 1.8s-1.5 0-1.8-.8l-28.9-68.7c-.4-.7-.1-1.5.7-1.8z"/><path d="m122.2 287.3c.8 0 1.4.7 1.4 1.5l-2.2 74.5c0 .8-.7 1.4-1.4 1.4-.8 0-1.4-.7-1.4-1.5l2.2-74.5c0-.8.7-1.4 1.4-1.4z"/></g><path d="m129.9 241.7c.6 4 2.5 7.6 5.5 10.4 2.3 1.6 9.9 6.3 13.1 6.9 1.4.3 3.8.7 4.9-.6.6-.8.5-1.7.5-2.8-.1-2.9.6-3.5 1.3-7.5 1-5.6.9-11.3-.2-16.9-.4-2-.5-1.6-1.5-5.6-1.4-5.7-1.8-8.5-1.3-10.7.3-1.6.9-3.4.9-3.4.4-1.1.5-1.5.7-2 .7-2.1 1-5.8-.9-7.9-1.1-1.1-2-.9-2.8-2.2s.1-2.4-.6-3.1-1.7-.4-2.4-.2l-.1-2.2-3.6.1c-.6 1-.5 1.9-.1 2.2.2.1.5.2.7.1.3.8.4 1.7.3 2.6 0 .6-.2 1.1-.6 1.6-.4.4-1 .5-1.6.4-1-.3-.8-1.8-2-3.2-.9-1-2.4-1.8-2.9-1.4-.2.1-.4.5.1 2.7.7 3.1 1.6 3.8 2.6 6.8.8 2.4.4 2.8 1.2 3.7s1.7 1.3 2.3 2.6c.2.4.3.8.3 1.3 1.4 11.8.3 18 .3 18-.2 1.3-.6 2.2-.9 4-.3 2-.4 4.1-.3 6.2-.4-1.2-1.2-2.2-2.3-2.9-3.6-2.4-9.9-.3-10.4 2.3-.2.1-.2.4-.2.7z" fill="#d6a685"/><path d="m193.3 347.1c-2.1 1.8-.4 5-2.6 9.5-.4.7-.6 1.5-.4 2.3.4 1.1 1.3 2 2.4 2.4 3.9 1.9 9.1 2.4 11.7 2.8 4.6.7 4.1 1.6 9.7 2.9 9.2 2.2 18.4 1.6 18.6.3.1-.3-.5-.5-5.2-3.1-3-1.6-4.5-2.5-5-2.8-2.5-1.7-5.7-3.8-6.8-7.3-1-2.9-.1-5.6-1.2-6-.5-.2-.9.4-1.8.8-2.1 1-4.5-.1-5.7-.5-2-.7-10.5-4-13.7-1.3z"/><path d="m130.1 212.3c2.8 6.3 5.6 12.7 8.4 19.2 1.2 2.8 2.4 5.7 3.6 8.5-1 .7-5.3 3.6-10 2.3-.9-.3-1.7-.6-2.4-1.1-3.9-2.5-4.2-12-1.5-23.2" fill="#352d2d"/><path d="m123.7 263.5c1-2 10.8 0 17.2 1.4 2.3.5 4.3 1 5.7 1.4 26.1 4.3 37.9 5.4 42.8 5.2 3.3-.3 6.6.3 9.6 1.6 1.9.8 3.6 2 5 3.5 1.3 1.7 2 3.8 2.1 6 2.8 35.9 4.3 50.8 5 53 .3 1 .5 2 .4 3.1-.1 2.1-1.4 2.4-1.3 4.1 0 1.4 1 1.6 1.1 3.4 0 .9-.1 1.8-.4 2.6-1.3 3.1-7.4 4.4-12.3 3.1-1.2-.3-5.3-1.5-6.7-4.7-.7-1.6-.1-2.3-.3-6.4-.1-3.2-.5-3.2-.8-6.6-.5-5.9.5-6.1-.2-9.9-.6-3.3-1.4-3.4-2.3-7.4-.5-2.5-.8-5.1-.8-7.7-.1-3.2-.4-7.8-1.2-13.6-2.4 1.6-5.1 2.6-8 3.1-8.9 1.3-15.4-4.2-32.9-17.2-16.5-12.3-22.6-16.2-21.7-18z" fill="#0b4670"/><path d="m98.7 199.8c1.4-3.2 5.6-3.7 6.9-8.2.5-1.7.1-2.3.7-2.7 2.2-1.5 10.9 4.7 14 13.6.9 2.5 2.8 7.7.2 10.8-3.3 4-13 2.7-18.1-2.5-2.3-2.5-5.2-7.4-3.7-11z" fill="#e5b593"/><path d="m98.1 198.6c-1.1 1.7 1.3-.8.4-.3-.6.3-1.5-.6-1.5-.6-1.1.5-2 .9-2.1.9-11.3 4.7-14.9 11.8-14.9 11.8-.7 1.3-1.1 2.6-1.7 6.4-1.1 7.3-1.6 14.6-1.3 22l3.4 3 16.6-3.4c-1 12-1.9 22.5-2.7 31.7-.2 1.6-.3 3.8 1 5.4 4.1 4.8 18.2 1.3 27.7-5.4 1-.8 2-1.6 3-2.4 5.4-3.2 11.6-2.5 16.2-1.4-8.5-11-10.3-19.5-10.8-24-.1-.6-.2-2.6-.3-5.1-.3-9.7 1.3-12.9.7-18.6-.5-4.7-.8-8.9-4-11.1-2.9-2-7.4-2.7-8.8-1-.9 1.1.2 2.4-.7 3.4-1.7 2-8.4 0-12.5-3.7-2.2-1.7-8.9-4.9-6.1-6.7" fill="#493c3c"/><path d="m105.9 193.5c.2-.2.3-.4.5-.6" fill="#e9c2a7"/><path d="m109.7 194.4c.3-1.9-4.9-3.9-5.1-5.6-.8-5.7 7.2-13.8 16.2-14.8 5.9-.6 13.9 1.5 16.6 7.5.1.1.1.3.2.4.5 1.9.6 4.1.5 6.1 0 .9-.1 1.8-.2 2.7-.1.6-.5 1.2-1 1.5-.7.4-1.3 1.1-1.6 1.9s-.5 1.6-.6 2.5c0 1-.2 1.6-.3 2.5 0 .1.1 1.6-.8 2.1-.6.3-1.2.4-1.8.2-1-.3-2 0-2.5.9-1.2 2.1-2.3 3.4-3 4.5-.6.9-1.4 1.6-2.4 1.9-.6.3-1.4.2-1.9-.2-3.3-2.3-11.1-9.7-11.5-10.1-.7-.5-1.1-1.4-.9-2.3z" fill="#e5b593"/><path d="m103.5 194.6c.4-.7.6-1.5.8-2.3 0 0 .1-.4.2-.9.5-2.7-1.2-9.5-1.2-9.5-1.1-4.4.6-9.3 2.7-12 3.6-4.8 10-5.4 12.9-5.6s10.9-1 17.2 5c7 6.7 6 16.2 5.8 17.2-1.2.1-2.3-.2-3.3-.8-1.3-1-2.2-2.5-2.3-4.1-2-1.6-4.6-3.2-6.2-2.3-1.1.6-1 1.9-2.1 3.3-1.9 2.4-5.5 2.1-8.3 2.5s-11.3 5.5-16.2 9.5" fill="#0d0d0d"/><path d="m145.4 265.1 39.7 2.2-.1 1.5c-.1 1.4-1.2 2.4-2.6 2.3l-34.8-1.9c-1.4-.1-2.4-1.2-2.3-2.6z" fill="#bfbfbf"/><path d="m124.3 266.7c3.5-1.1 6 1.3 16.7 2.9 5.7.9 6.4.5 14.9 1 16.2 1 24.4 1.8 27.5 6.1 3.9 5.5 1.6 14.1 1.3 15-.8 3-1.9 4.1-3.9 8.2s-2.2 5.8-4.7 13.8c-2.1 6.7-8.8 27.6-10.7 31-.3.6-.5 1.2-.6 1.8-.2 1.2-.1 2.4.3 3.6-3.8 1.5-9.8 3.3-15.4 1.5-1.1-.3-3.7-1.2-4-2.9-.2-1.2.8-1.8 2.1-4.2 1-1.8.9-2.4 1.9-5.5 1.6-4.5 2-4 2.8-6.6.9-3.2.1-3.5 1-8.2.3-2 .6-2.4 1.6-6.6 0 0 .9-3.8 1.9-8.2.6-2.7 1.4-6.5 2.3-11.2l-45.1-1.8c1.1-22 5.7-28.3 10.1-29.7z" fill="#005a8c"/><path d="m142.8 356.2c-1.1.8-.9 3.1-.5 4.4.6 2.1 2.1 2.9 4.6 5.3 2.9 2.8 2.1 2.9 4.6 5.3 2.5 2.5 5.5 4.4 8.9 5.5 1.7.4 3.4.6 5.1.8 6.3.7 8.3.1 9.8-.9.4-.2.8-.5 1-.9.7-1.4-.7-3.3-.9-3.6-7.3-2.2-14.3-5.5-20.7-9.7-5-3.5-9.9-7.7-11.9-6.2z" fill="#dedfd9"/><path d="m87.4 224.7c-2.5-1.8-10.8 3.1-13.4 10.1-.9 2.4-.8 4.5-.7 8.7.1 4.7.7 9.4 1.6 13.9l10 .9c.4 2.2.9 5.6 1.3 9.8.6 8-.2 10.2.9 15.4.8 3.9 1.7 8.5 5.1 12 2.8 2.9 6.6 4.3 17.2 5.1 9.1.6 18.3.4 27.3-.7-4.7-2.1-8.6-5.6-11.2-10-.9-1.9-1.7-3.8-2.3-5.8-3.1-8.2-4.7-14.7-4.7-14.7-1.1-4.3-1.1-5.2-2.2-6.5-2.4-3-6.3-3.5-8.3-3.8-5.8-.9-19-4.3-23-10.5-5.5-8.3 5.8-21.4 2.4-23.9z" fill="#afbdc2"/><path d="m107.5 259.9c0 .4 5-.1 7.7 3.2.7 1 1.2 2.2 1.4 3.4.9 3.5 2.2 7 3.1 10.5 1.1 4.5 2.9 8.7 5.2 12.7 2 3.2 4.5 7.3 9.3 10 3.9 2.2 7.3 2.5 12.5 3 4.8.5 8.8.1 14.5-.3 3.1-.2 5.6-.5 7.3-.8l-7.3-7.2c-1.5.2-17.9 2.9-24.8 1.4-1.2-.3-2.4-.7-3.5-1.2-2.5-1.3-4.6-3.3-6-5.8-.8-1.4-1.5-3.4-2.8-7.5-.8-2.6-1.1-3.8-2.3-7.8-1.8-6.2-2.3-7.4-3.2-8.9-1-1.9-2.6-3.4-4.4-4.4-3.1-1.6-6.6-.7-6.7-.3z" fill="#f4f3f1"/><path d="m209.2 242.3-22.9 27c-.7.8-2 .9-2.8.2l-.3-.3 25.7-30.3c1 .9 1.1 2.4.3 3.4z" fill="#bfbfbf"/><path d="m80.9 240.4c.7-1.6 1.9-2.8 3.5-3.5 5.5-2.8 12.1 1.2 12.9 1.8l.1 4.3c18.1 5.8 25.4 7.5 27.7 7.4h1.3c3 .1 4.3 1.3 6.9 1.6 1 .1 2 .1 3 0 3.5-.2 7.1.2 10.6 1 2.5.7 8.1 2.2 9.5 6.7.4 1.3 1.1 3.9-.1 4.8-.7.5-1.7-.2-4.6-1.2-2-.7-6.1-2.2-6.9-1.1-.5.7.8 1.9.1 2.9-.5.6-1.3.8-2 .8-1.3-.1-1.9-1.2-3.4-2.8-1-1.1-3.7-3.8-7.2-4.3-.7-.1-1.5-.1-2.3 0 0 0-25.8 3-39.4.5-.8-.1-1.6-.4-2.3-.8-2.9-1.6-2.8-4.4-5.4-10.8-1.6-4.3-2.6-5.4-2-7.3z" fill="#e5b593"/><path d="m115.1 175.5c-.4 1.8 3.4 2.9 3.8 5 .9 5.6-2.1 10.7-6.2 11-1.4.1-2.8-.2-4-.8-1.5-1-2.6-2.5-3-4.2-.9-3.5 10.5-16.3 9.4-11z" fill="#4a494a"/><path d="m146 347.3c-.6 1.9-1.3 3.7-2.3 5.4-1 1.8-1.5 2.2-1.6 3.2-.2 2 1.5 3.4 4.3 6.2 6.5 6.4 5.9 7.1 8.5 8.4 2.3 1.1 4.3 1.3 8.3 1.6 4.1.3 8.2.3 12.2-.3-3.1-1.8-5.8-4.2-7.9-7.2-.6-.8-1.1-1.7-1.5-2.6-2.9-6.2.3-9.8-2-12.6-1.3-1.5-4.5-1.8-11-2.4-1.8-.2-3.3-.2-4.3-.3"/><path d="m124.3 266.7c3.5-1.1 6 1.3 16.7 2.9 5.7.9 6.4.5 14.9 1 16.2 1 24.4 1.8 27.5 6.1 3.9 5.5 1.6 14.1 1.3 15-.8 3-1.9 4.1-3.9 8.2s-2.2 5.8-4.7 13.8c-2.1 6.7-8.8 27.6-10.7 31-.3.6-.5 1.2-.6 1.8-.2 1.2-.1 2.4.3 3.6-3.8 1.5-9.8 3.3-15.4 1.5-1.1-.3-3.7-1.2-4-2.9-.2-1.2.8-1.8 2.1-4.2 1-1.8.9-2.4 1.9-5.5 1.6-4.5 2-4 2.8-6.6.9-3.2.1-3.5 1-8.2.3-2 .6-2.4 1.6-6.6 0 0 .9-3.8 1.9-8.2.6-2.7 1.4-6.5 2.3-11.2-15-.6-16.3-1-26.2-3.5 21.2 5.3-13.2-26.6-8.8-28z" fill="#005a8c"/><path d="m116 176.8c-.4 1.9 1.5 1.7 2.1 3.8 1.2 4.2-2 10.2-6.2 11-1.4.2-2.8-.1-4-.8-1.5-1-2.6-2.5-3-4.2-.8-3.5 2-8 7.1-10.8 3.7-6.9 7.7-11.8 10-12 .8-.1 1.8-.1 1.8-.1 1.8 0 3 .9 4 1-5.3-.3-10.7 6.8-11.8 12.1z" fill="#5e5f5f"/><ellipse cx="154.7" cy="366.8" fill="url(#a)" rx="154.7" ry="26.1"/><path d="m98.4 200.6c-1.1 1.7 4.7-4.9 3.8-4.4-.6.3-5.2 1.5-5.2 1.5-1.1.5-2 .9-2.1.9-11.3 4.7-14.9 11.8-14.9 11.8-.7 1.3-1.1 2.6-1.7 6.4-1.1 7.3-1.6 14.6-1.3 22l3.4 3 16.6-3.4c-1 12 34.9 8.6 34.4 4-.1-.6-21.6-32.4-25.7-36.1-2.1-1.8-7-5.2-7.3-5.7" fill="#493c3c"/></svg>