<?xml version="1.0" encoding="utf-8"?>
<!-- Generator: Adobe Illustrator 23.0.4, SVG Export Plug-In . SVG Version: 6.00 Build 0)  -->
<svg version="1.1" id="Layer_1" xmlns="http://www.w3.org/2000/svg" xmlns:xlink="http://www.w3.org/1999/xlink" x="0px" y="0px"
	 viewBox="0 0 522.8 392.9" style="enable-background:new 0 0 522.8 392.9;" xml:space="preserve">
<style type="text/css">
	.st0{fill:#DEDFD9;}
	.st1{fill:#303030;}
	.st2{fill:#D6A685;}
	.st3{fill:#352D2D;}
	.st4{fill:#0B4670;}
	.st5{fill:#E5B593;}
	.st6{fill:#493C3C;}
	.st7{fill:#E9C2A7;}
	.st8{fill:#0D0D0D;}
	.st9{fill:#BFBFBF;}
	.st10{fill:#005A8C;}
	.st11{fill:#AFBDC2;}
	.st12{fill:#F4F3F1;}
	.st13{fill:#4A494A;}
	.st14{fill:#5E5F5F;}
	.st15{fill:url(#SVGID_1_);}
</style>
<title>meflat</title>
<path class="st0" d="M191,358.3c-0.6,0.5-2.3,2-2.1,3.9c0.2,1.1,0.8,2.1,1.7,2.8c1.1,0.7,2.3,1,3.6,0.9l9.9,2.4
	c7.5,1.8,6.9,1.8,10.9,2.7c2.8,0.6,5,0.8,9.4,1.3c2,0.2,5.3,0.6,8-1c0.7-0.3,1.2-0.9,1.5-1.7c0.2-1.2-0.4-2.3-1.5-2.8
	c-1.8-0.8-3.5,0.7-6.1,0.9c-2.9,0.2-4.8-1.8-6.8-4C211.5,354.9,195.7,354.1,191,358.3z"/>
<path class="st1" d="M109.1,299.8L109.1,299.8c0.7,0.3,1.1,1.1,0.8,1.8l-27.5,69.3c-0.3,0.7-1.1,1.1-1.8,0.8l0,0
	c-0.7-0.3-1.1-1.1-0.8-1.8l27.5-69.3C107.6,299.8,108.4,299.5,109.1,299.8z"/>
<path class="st1" d="M134.4,300.1L134.4,300.1c0.8-0.1,1.5,0.5,1.6,1.2l9.2,74c0.1,0.8-0.4,1.5-1.2,1.6l0,0
	c-0.8,0.1-1.5-0.5-1.6-1.2l-9.2-74C133.1,300.9,133.7,300.2,134.4,300.1z"/>
<path class="st1" d="M152.2,297.1L152.2,297.1c0.7-0.3,1.5,0,1.8,0.8l28.9,68.7c0.3,0.7,0,1.5-0.7,1.8l0,0c-0.7,0.3-1.5,0-1.8-0.8
	l-28.9-68.7C151.1,298.2,151.4,297.4,152.2,297.1z"/>
<path class="st1" d="M122.2,287.3L122.2,287.3c0.8,0,1.4,0.7,1.4,1.5l-2.2,74.5c0,0.8-0.7,1.4-1.4,1.4l0,0c-0.8,0-1.4-0.7-1.4-1.5
	l2.2-74.5C120.8,287.9,121.5,287.3,122.2,287.3z"/>
<path class="st2" d="M129.9,241.7c0.6,4,2.5,7.6,5.5,10.4c2.3,1.6,9.9,6.3,13.1,6.9c1.4,0.3,3.8,0.7,4.9-0.6
	c0.6-0.8,0.5-1.7,0.5-2.8c-0.1-2.9,0.6-3.5,1.3-7.5c1-5.6,0.9-11.3-0.2-16.9c-0.4-2-0.5-1.6-1.5-5.6c-1.4-5.7-1.8-8.5-1.3-10.7
	c0.3-1.6,0.9-3.4,0.9-3.4c0.4-1.1,0.5-1.5,0.7-2c0.7-2.1,1-5.8-0.9-7.9c-1.1-1.1-2-0.9-2.8-2.2s0.1-2.4-0.6-3.1s-1.7-0.4-2.4-0.2
	l-0.1-2.2l-3.6,0.1c-0.6,1-0.5,1.9-0.1,2.2c0.2,0.1,0.5,0.2,0.7,0.1c0.3,0.8,0.4,1.7,0.3,2.6c0,0.6-0.2,1.1-0.6,1.6
	c-0.4,0.4-1,0.5-1.6,0.4c-1-0.3-0.8-1.8-2-3.2c-0.9-1-2.4-1.8-2.9-1.4c-0.2,0.1-0.4,0.5,0.1,2.7c0.7,3.1,1.6,3.8,2.6,6.8
	c0.8,2.4,0.4,2.8,1.2,3.7s1.7,1.3,2.3,2.6c0.2,0.4,0.3,0.8,0.3,1.3c1.4,11.8,0.3,18,0.3,18c-0.2,1.3-0.6,2.2-0.9,4
	c-0.3,2-0.4,4.1-0.3,6.2c-0.4-1.2-1.2-2.2-2.3-2.9c-3.6-2.4-9.9-0.3-10.4,2.3C129.9,241.1,129.9,241.4,129.9,241.7z"/>
<path d="M193.3,347.1c-2.1,1.8-0.4,5-2.6,9.5c-0.4,0.7-0.6,1.5-0.4,2.3c0.4,1.1,1.3,2,2.4,2.4c3.9,1.9,9.1,2.4,11.7,2.8
	c4.6,0.7,4.1,1.6,9.7,2.9c9.2,2.2,18.4,1.6,18.6,0.3c0.1-0.3-0.5-0.5-5.2-3.1c-3-1.6-4.5-2.5-5-2.8c-2.5-1.7-5.7-3.8-6.8-7.3
	c-1-2.9-0.1-5.6-1.2-6c-0.5-0.2-0.9,0.4-1.8,0.8c-2.1,1-4.5-0.1-5.7-0.5C205,347.7,196.5,344.4,193.3,347.1z"/>
<path class="st3" d="M130.1,212.3c2.8,6.3,5.6,12.7,8.4,19.2c1.2,2.8,2.4,5.7,3.6,8.5c-1,0.7-5.3,3.6-10,2.3
	c-0.9-0.3-1.7-0.6-2.4-1.1c-3.9-2.5-4.2-12-1.5-23.2"/>
<path class="st4" d="M123.7,263.5c1-2,10.8,0,17.2,1.4c2.3,0.5,4.3,1,5.7,1.4c26.1,4.3,37.9,5.4,42.8,5.2c3.3-0.3,6.6,0.3,9.6,1.6
	c1.9,0.8,3.6,2,5,3.5c1.3,1.7,2,3.8,2.1,6c2.8,35.9,4.3,50.8,5,53c0.3,1,0.5,2,0.4,3.1c-0.1,2.1-1.4,2.4-1.3,4.1
	c0,1.4,1,1.6,1.1,3.4c0,0.9-0.1,1.8-0.4,2.6c-1.3,3.1-7.4,4.4-12.3,3.1c-1.2-0.3-5.3-1.5-6.7-4.7c-0.7-1.6-0.1-2.3-0.3-6.4
	c-0.1-3.2-0.5-3.2-0.8-6.6c-0.5-5.9,0.5-6.1-0.2-9.9c-0.6-3.3-1.4-3.4-2.3-7.4c-0.5-2.5-0.8-5.1-0.8-7.7c-0.1-3.2-0.4-7.8-1.2-13.6
	c-2.4,1.6-5.1,2.6-8,3.1c-8.9,1.3-15.4-4.2-32.9-17.2C128.9,269.2,122.8,265.3,123.7,263.5z"/>
<path class="st5" d="M98.7,199.8c1.4-3.2,5.6-3.7,6.9-8.2c0.5-1.7,0.1-2.3,0.7-2.7c2.2-1.5,10.9,4.7,14,13.6
	c0.9,2.5,2.8,7.7,0.2,10.8c-3.3,4-13,2.7-18.1-2.5C100.1,208.3,97.2,203.4,98.7,199.8z"/>
<path class="st6" d="M98.1,198.6c-1.1,1.7,1.3-0.8,0.4-0.3c-0.6,0.3-1.5-0.6-1.5-0.6c-1.1,0.5-2,0.9-2.1,0.9
	C83.6,203.3,80,210.4,80,210.4c-0.7,1.3-1.1,2.6-1.7,6.4c-1.1,7.3-1.6,14.6-1.3,22l3.4,3l16.6-3.4c-1,12-1.9,22.5-2.7,31.7
	c-0.2,1.6-0.3,3.8,1,5.4c4.1,4.8,18.2,1.3,27.7-5.4c1-0.8,2-1.6,3-2.4c5.4-3.2,11.6-2.5,16.2-1.4c-8.5-11-10.3-19.5-10.8-24
	c-0.1-0.6-0.2-2.6-0.3-5.1c-0.3-9.7,1.3-12.9,0.7-18.6c-0.5-4.7-0.8-8.9-4-11.1c-2.9-2-7.4-2.7-8.8-1c-0.9,1.1,0.2,2.4-0.7,3.4
	c-1.7,2-8.4,0-12.5-3.7c-2.2-1.7-8.9-4.9-6.1-6.7"/>
<path class="st7" d="M105.9,193.5c0.2-0.2,0.3-0.4,0.5-0.6"/>
<path class="st7" d="M104.7,197"/>
<path class="st5" d="M109.7,194.4c0.3-1.9-4.9-3.9-5.1-5.6c-0.8-5.7,7.2-13.8,16.2-14.8c5.9-0.6,13.9,1.5,16.6,7.5
	c0.1,0.1,0.1,0.3,0.2,0.4c0.5,1.9,0.6,4.1,0.5,6.1c0,0.9-0.1,1.8-0.2,2.7c-0.1,0.6-0.5,1.2-1,1.5c-0.7,0.4-1.3,1.1-1.6,1.9
	c-0.3,0.8-0.5,1.6-0.6,2.5c0,1-0.2,1.6-0.3,2.5c0,0.1,0.1,1.6-0.8,2.1c-0.6,0.3-1.2,0.4-1.8,0.2c-1-0.3-2,0-2.5,0.9
	c-1.2,2.1-2.3,3.4-3,4.5c-0.6,0.9-1.4,1.6-2.4,1.9c-0.6,0.3-1.4,0.2-1.9-0.2c-3.3-2.3-11.1-9.7-11.5-10.1c-0.7-0.5-1.1-1.4-0.9-2.3
	L109.7,194.4z"/>
<path class="st8" d="M103.5,194.6c0.4-0.7,0.6-1.5,0.8-2.3c0,0,0.1-0.4,0.2-0.9c0.5-2.7-1.2-9.5-1.2-9.5c-1.1-4.4,0.6-9.3,2.7-12
	c3.6-4.8,10-5.4,12.9-5.6s10.9-1,17.2,5c7,6.7,6,16.2,5.8,17.2c-1.2,0.1-2.3-0.2-3.3-0.8c-1.3-1-2.2-2.5-2.3-4.1
	c-2-1.6-4.6-3.2-6.2-2.3c-1.1,0.6-1,1.9-2.1,3.3c-1.9,2.4-5.5,2.1-8.3,2.5S108.4,190.6,103.5,194.6"/>
<path class="st9" d="M145.4,265.1l39.7,2.2l0,0l-0.1,1.5c-0.1,1.4-1.2,2.4-2.6,2.3l0,0l-34.8-1.9c-1.4-0.1-2.4-1.2-2.3-2.6l0,0
	L145.4,265.1L145.4,265.1z"/>
<path class="st10" d="M124.3,266.7c3.5-1.1,6,1.3,16.7,2.9c5.7,0.9,6.4,0.5,14.9,1c16.2,1,24.4,1.8,27.5,6.1
	c3.9,5.5,1.6,14.1,1.3,15c-0.8,3-1.9,4.1-3.9,8.2s-2.2,5.8-4.7,13.8c-2.1,6.7-8.8,27.6-10.7,31c-0.3,0.6-0.5,1.2-0.6,1.8
	c-0.2,1.2-0.1,2.4,0.3,3.6c-3.8,1.5-9.8,3.3-15.4,1.5c-1.1-0.3-3.7-1.2-4-2.9c-0.2-1.2,0.8-1.8,2.1-4.2c1-1.8,0.9-2.4,1.9-5.5
	c1.6-4.5,2-4,2.8-6.6c0.9-3.2,0.1-3.5,1-8.2c0.3-2,0.6-2.4,1.6-6.6c0,0,0.9-3.8,1.9-8.2c0.6-2.7,1.4-6.5,2.3-11.2l-45.1-1.8
	C115.3,274.4,119.9,268.1,124.3,266.7z"/>
<path class="st0" d="M142.8,356.2c-1.1,0.8-0.9,3.1-0.5,4.4c0.6,2.1,2.1,2.9,4.6,5.3c2.9,2.8,2.1,2.9,4.6,5.3
	c2.5,2.5,5.5,4.4,8.9,5.5c1.7,0.4,3.4,0.6,5.1,0.8c6.3,0.7,8.3,0.1,9.8-0.9c0.4-0.2,0.8-0.5,1-0.9c0.7-1.4-0.7-3.3-0.9-3.6
	c-7.3-2.2-14.3-5.5-20.7-9.7C149.7,358.9,144.8,354.7,142.8,356.2z"/>
<path class="st11" d="M87.4,224.7c-2.5-1.8-10.8,3.1-13.4,10.1c-0.9,2.4-0.8,4.5-0.7,8.7c0.1,4.7,0.7,9.4,1.6,13.9l10,0.9
	c0.4,2.2,0.9,5.6,1.3,9.8c0.6,8-0.2,10.2,0.9,15.4c0.8,3.9,1.7,8.5,5.1,12c2.8,2.9,6.6,4.3,17.2,5.1c9.1,0.6,18.3,0.4,27.3-0.7
	c-4.7-2.1-8.6-5.6-11.2-10c-0.9-1.9-1.7-3.8-2.3-5.8c-3.1-8.2-4.7-14.7-4.7-14.7c-1.1-4.3-1.1-5.2-2.2-6.5c-2.4-3-6.3-3.5-8.3-3.8
	c-5.8-0.9-19-4.3-23-10.5C79.5,240.3,90.8,227.2,87.4,224.7z"/>
<path class="st12" d="M107.5,259.9c0,0.4,5-0.1,7.7,3.2c0.7,1,1.2,2.2,1.4,3.4c0.9,3.5,2.2,7,3.1,10.5c1.1,4.5,2.9,8.7,5.2,12.7
	c2,3.2,4.5,7.3,9.3,10c3.9,2.2,7.3,2.5,12.5,3c4.8,0.5,8.8,0.1,14.5-0.3c3.1-0.2,5.6-0.5,7.3-0.8l-7.3-7.2
	c-1.5,0.2-17.9,2.9-24.8,1.4c-1.2-0.3-2.4-0.7-3.5-1.2c-2.5-1.3-4.6-3.3-6-5.8c-0.8-1.4-1.5-3.4-2.8-7.5c-0.8-2.6-1.1-3.8-2.3-7.8
	c-1.8-6.2-2.3-7.4-3.2-8.9c-1-1.9-2.6-3.4-4.4-4.4C111.1,258.6,107.6,259.5,107.5,259.9z"/>
<path class="st9" d="M209.2,242.3l-22.9,27c-0.7,0.8-2,0.9-2.8,0.2l-0.3-0.3l0,0l25.7-30.3l0,0l0,0
	C209.9,239.8,210,241.3,209.2,242.3L209.2,242.3z"/>
<path class="st5" d="M80.9,240.4c0.7-1.6,1.9-2.8,3.5-3.5c5.5-2.8,12.1,1.2,12.9,1.8l0.1,4.3c18.1,5.8,25.4,7.5,27.7,7.4
	c0.2,0,0.6,0,1.3,0c3,0.1,4.3,1.3,6.9,1.6c1,0.1,2,0.1,3,0c3.5-0.2,7.1,0.2,10.6,1c2.5,0.7,8.1,2.2,9.5,6.7c0.4,1.3,1.1,3.9-0.1,4.8
	c-0.7,0.5-1.7-0.2-4.6-1.2c-2-0.7-6.1-2.2-6.9-1.1c-0.5,0.7,0.8,1.9,0.1,2.9c-0.5,0.6-1.3,0.8-2,0.8c-1.3-0.1-1.9-1.2-3.4-2.8
	c-1-1.1-3.7-3.8-7.2-4.3c-0.7-0.1-1.5-0.1-2.3,0c0,0-25.8,3-39.4,0.5c-0.8-0.1-1.6-0.4-2.3-0.8c-2.9-1.6-2.8-4.4-5.4-10.8
	C81.3,243.4,80.3,242.3,80.9,240.4z"/>
<path class="st13" d="M115.1,175.5c-0.4,1.8,3.4,2.9,3.8,5c0.9,5.6-2.1,10.7-6.2,11c-1.4,0.1-2.8-0.2-4-0.8c-1.5-1-2.6-2.5-3-4.2
	C104.8,183,116.2,170.2,115.1,175.5z"/>
<path d="M146,347.3c-0.6,1.9-1.3,3.7-2.3,5.4c-1,1.8-1.5,2.2-1.6,3.2c-0.2,2,1.5,3.4,4.3,6.2c6.5,6.4,5.9,7.1,8.5,8.4
	c2.3,1.1,4.3,1.3,8.3,1.6c4.1,0.3,8.2,0.3,12.2-0.3c-3.1-1.8-5.8-4.2-7.9-7.2c-0.6-0.8-1.1-1.7-1.5-2.6c-2.9-6.2,0.3-9.8-2-12.6
	c-1.3-1.5-4.5-1.8-11-2.4c-1.8-0.2-3.3-0.2-4.3-0.3"/>
<path class="st10" d="M124.3,266.7c3.5-1.1,6,1.3,16.7,2.9c5.7,0.9,6.4,0.5,14.9,1c16.2,1,24.4,1.8,27.5,6.1
	c3.9,5.5,1.6,14.1,1.3,15c-0.8,3-1.9,4.1-3.9,8.2s-2.2,5.8-4.7,13.8c-2.1,6.7-8.8,27.6-10.7,31c-0.3,0.6-0.5,1.2-0.6,1.8
	c-0.2,1.2-0.1,2.4,0.3,3.6c-3.8,1.5-9.8,3.3-15.4,1.5c-1.1-0.3-3.7-1.2-4-2.9c-0.2-1.2,0.8-1.8,2.1-4.2c1-1.8,0.9-2.4,1.9-5.5
	c1.6-4.5,2-4,2.8-6.6c0.9-3.2,0.1-3.5,1-8.2c0.3-2,0.6-2.4,1.6-6.6c0,0,0.9-3.8,1.9-8.2c0.6-2.7,1.4-6.5,2.3-11.2
	c-15-0.6-16.3-1-26.2-3.5C154.3,300,119.9,268.1,124.3,266.7z"/>
<path class="st14" d="M116,176.8c-0.4,1.9,1.5,1.7,2.1,3.8c1.2,4.2-2,10.2-6.2,11c-1.4,0.2-2.8-0.1-4-0.8c-1.5-1-2.6-2.5-3-4.2
	c-0.8-3.5,2-8,7.1-10.8c3.7-6.9,7.7-11.8,10-12c0.8-0.1,1.8-0.1,1.8-0.1c1.8,0,3,0.9,4,1C122.5,164.4,117.1,171.5,116,176.8z"/>
<radialGradient id="SVGID_1_" cx="145.07" cy="2561.01" r="110.8912" gradientTransform="matrix(1 0 0 0.2 9.63 -145.402)" gradientUnits="userSpaceOnUse">
	<stop  offset="0" style="stop-color:#231F20;stop-opacity:0.15"/>
	<stop  offset="0.97" style="stop-color:#231F20;stop-opacity:0"/>
</radialGradient>
<ellipse class="st15" cx="154.7" cy="366.8" rx="154.7" ry="26.1"/>
<path class="st6" d="M98.4,200.6c-1.1,1.7,4.7-4.9,3.8-4.4c-0.6,0.3-5.2,1.5-5.2,1.5c-1.1,0.5-2,0.9-2.1,0.9
	C83.6,203.3,80,210.4,80,210.4c-0.7,1.3-1.1,2.6-1.7,6.4c-1.1,7.3-1.6,14.6-1.3,22l3.4,3l16.6-3.4c-1,12,34.9,8.6,34.4,4
	c-0.1-0.6-21.6-32.4-25.7-36.1C103.6,204.5,98.7,201.1,98.4,200.6"/>
</svg>
