<?xml version="1.0" encoding="utf-8"?>
<!-- Generator: Adobe Illustrator 22.1.0, SVG Export Plug-In . SVG Version: 6.00 Build 0)  -->
<svg version="1.1" id="Layer_1" xmlns="http://www.w3.org/2000/svg" xmlns:xlink="http://www.w3.org/1999/xlink" x="0px" y="0px"
	 viewBox="0 0 128 128" style="enable-background:new 0 0 128 128;" xml:space="preserve">
<style type="text/css">
	.st0{fill:#4B5F83;}
	.st1{fill:#E6E6E6;}
	.st2{fill:#B3B3B3;}
	.st3{fill:#22A7F0;}
</style>
<circle id="circle" class="st0" cx="64" cy="64" r="64"/>
<g id="icon">
	<path id="wrench" class="st1" d="M91.7,42l-6.6,6.6c-1.6,1.6-4.1,1.6-5.7,0s-1.6-4.1,0-5.7l6.6-6.6c-4.7-2.3-10.5-1.5-14.4,2.4
		s-4.7,9.7-2.4,14.4l-25,25c-2.4-0.5-5.1,0.1-7,2c-2.9,2.9-2.9,7.7,0,10.6s7.7,2.9,10.6,0c1.9-1.9,2.6-4.5,2-7l25-25
		c4.7,2.3,10.5,1.5,14.4-2.4S94,46.7,91.7,42z M45.2,87.9c-1.4,1.4-3.6,1.4-4.9,0c-1.4-1.4-1.4-3.6,0-4.9s3.6-1.4,4.9,0
		S46.6,86.5,45.2,87.9z"/>
	<g id="screwdriver">
		<polygon id="base" class="st2" points="89.2,85.4 54.3,50.6 55.1,49.8 53,43.6 39.7,36.9 35,41.6 42.1,55.3 47.9,57 48.7,56.2 
			83.5,91.1 		"/>
		<path id="line" class="st3" d="M89,90.9L89,90.9c-2.3,2.3-6.2,2.3-8.5,0L67.8,78.1c-2.3-2.3-2.3-6.2,0-8.5l0,0
			c2.3-2.3,6.2-2.3,8.5,0L89,82.4C91.3,84.7,91.3,88.5,89,90.9z"/>
	</g>
</g>
</svg>
